<?xml version="1.0" standalone="no"?>
<!DOCTYPE svg PUBLIC "-//W3C//DTD SVG 20010904//EN"
 "http://www.w3.org/TR/2001/REC-SVG-20010904/DTD/svg10.dtd">
<svg version="1.0" xmlns="http://www.w3.org/2000/svg"
 width="176.000000pt" height="176.000000pt" viewBox="0 0 176.000000 176.000000"
 preserveAspectRatio="xMidYMid meet">
<metadata>
Created by potrace 1.11, written by Peter Selinger 2001-2013
</metadata>
<g transform="translate(0.000000,176.000000) scale(0.100000,-0.100000)"
fill="#000000" stroke="none">
<path d="M569 1388 c0 -13 0 -68 0 -123 2 -105 0 -112 -37 -137 l-24 -16 32
-18 31 -19 -1 -110 c-1 -60 -1 -119 -1 -130 1 -20 7 -20 303 -18 167 1 311 2
320 2 14 1 17 14 17 94 0 182 -1 172 27 187 l25 14 -25 13 c-15 8 -26 19 -27
26 0 7 0 67 0 135 l1 122 -320 0 -320 0 -1 -22z"/>
<path d="M569 716 c-14 -6 -33 -17 -42 -24 -22 -18 -32 -69 -17 -87 20 -24 30
-17 30 18 0 36 25 67 53 67 21 0 21 -1 1 -92 -8 -40 -17 -82 -20 -93 -2 -11
-6 -32 -9 -46 -5 -24 -3 -26 20 -23 15 1 28 4 30 6 1 2 10 39 20 83 9 44 18
85 19 90 1 6 6 24 9 40 7 29 10 30 47 27 41 -4 78 14 62 30 -13 13 -174 16
-203 4z"/>
<path d="M919 639 c-8 -5 -11 -9 -7 -9 6 0 -25 -130 -36 -149 -4 -6 -14 -11
-23 -11 -12 0 -14 7 -9 33 4 17 9 43 12 57 2 14 6 35 9 47 5 20 1 22 -52 22
-68 0 -99 -17 -119 -64 -38 -91 16 -165 82 -113 7 5 16 3 23 -6 11 -13 51 -13
72 0 4 2 4 -9 -1 -26 -5 -16 -7 -30 -5 -30 3 0 0 -12 -5 -26 -10 -25 -9 -26
17 -19 31 7 43 21 43 50 0 31 12 41 50 42 25 1 40 9 57 29 28 35 40 106 24
141 -10 21 -17 25 -46 21 -21 -2 -35 0 -35 7 0 14 -32 16 -51 4z m-114 -50 c4
-28 -30 -114 -45 -114 -23 0 -19 88 5 115 20 22 37 22 40 -1z m198 -42 c-5
-44 -26 -77 -50 -77 -15 0 -16 10 -2 70 13 55 27 74 44 60 9 -7 11 -26 8 -53z"/>
<path d="M1095 626 c-2 -12 -11 -52 -20 -91 -29 -127 -40 -195 -32 -195 3 0
17 4 30 9 19 8 26 19 31 56 6 37 10 44 21 35 10 -8 23 -7 49 4 42 18 66 63 66
124 0 47 -19 66 -60 60 -18 -3 -30 0 -30 7 0 6 -11 11 -25 11 -18 0 -27 -6
-30 -20z m90 -80 c-6 -43 -29 -76 -52 -76 -16 0 -16 8 -2 68 15 61 27 76 46
60 11 -9 13 -23 8 -52z"/>
</g>
</svg>
