<?xml version="1.0" standalone="no"?>
<!DOCTYPE svg PUBLIC "-//W3C//DTD SVG 20010904//EN"
 "http://www.w3.org/TR/2001/REC-SVG-20010904/DTD/svg10.dtd">
<svg version="1.0" xmlns="http://www.w3.org/2000/svg"
 width="500.000000pt" height="500.000000pt" viewBox="0 0 500.000000 500.000000"
 preserveAspectRatio="xMidYMid meet">
<metadata>
Created by potrace 1.11, written by Peter Selinger 2001-2013
</metadata>
<g transform="translate(0.000000,500.000000) scale(0.100000,-0.100000)"
fill="#000000" stroke="none">
<path d="M2385 4491 c-9 -28 1 -41 31 -41 22 0 25 4 22 28 -4 34 -43 44 -53
13z"/>
<path d="M2527 4503 c-4 -3 -7 -17 -7 -30 0 -18 6 -23 24 -23 30 0 40 13 31
40 -6 19 -35 27 -48 13z"/>
<path d="M2253 4493 c-7 -2 -13 -16 -13 -29 0 -20 5 -24 29 -24 36 0 46 13 31
40 -11 20 -23 23 -47 13z"/>
<path d="M2665 4490 c-11 -18 6 -50 25 -50 24 0 33 15 25 40 -7 21 -39 27 -50
10z"/>
<path d="M2113 4474 c-15 -6 -17 -50 -4 -58 5 -4 21 -2 36 4 20 7 26 16 23 33
-3 22 -29 32 -55 21z"/>
<path d="M2796 4463 c-5 -11 -1 -22 10 -30 34 -25 61 -10 49 27 -8 25 -50 27
-59 3z"/>
<path d="M2941 4451 c-18 -11 -5 -48 19 -56 38 -12 54 20 24 49 -18 18 -24 19
-43 7z"/>
<path d="M1976 4434 c-29 -29 -9 -62 29 -48 21 8 30 45 14 55 -19 12 -25 11
-43 -7z"/>
<path d="M3078 4409 c-28 -16 -19 -41 19 -53 16 -5 25 -2 34 15 10 19 9 25 -7
36 -21 15 -24 16 -46 2z"/>
<path d="M1832 4373 c3 -32 25 -40 52 -20 28 20 14 47 -24 47 -28 0 -31 -3
-28 -27z"/>
<path d="M3207 4364 c-13 -13 -7 -42 9 -48 33 -13 45 -7 42 22 -3 26 -34 43
-51 26z"/>
<path d="M1696 4334 c-4 -10 0 -24 8 -33 20 -20 69 0 64 27 -5 24 -63 29 -72
6z"/>
<path d="M3332 4308 c-7 -7 -12 -18 -12 -25 0 -16 38 -36 56 -29 27 10 10 66
-21 66 -6 0 -16 -5 -23 -12z"/>
<path d="M1586 4287 c-28 -20 -14 -49 21 -45 22 2 28 8 28 28 0 29 -22 37 -49
17z"/>
<path d="M3455 4229 c-8 -23 7 -39 38 -39 23 0 33 26 17 45 -18 22 -48 18 -55
-6z"/>
<path d="M1454 4216 c-9 -23 3 -46 23 -46 28 0 45 16 41 36 -4 25 -56 32 -64
10z"/>
<path d="M3580 4150 c0 -37 24 -50 48 -26 20 20 6 49 -27 54 -18 3 -21 -2 -21
-28z"/>
<path d="M1341 4146 c-20 -24 -9 -51 19 -51 21 0 25 5 25 30 0 34 -24 45 -44
21z"/>
<path d="M3690 4085 c-18 -21 -2 -49 29 -53 20 -3 22 0 19 30 -3 37 -27 48
-48 23z"/>
<path d="M1232 4033 c2 -20 9 -28 23 -28 14 0 21 8 23 28 3 23 0 27 -23 27
-23 0 -26 -4 -23 -27z"/>
<path d="M3807 4004 c-4 -4 -7 -18 -7 -31 0 -18 5 -23 26 -23 22 0 25 4 22 27
-3 27 -26 41 -41 27z"/>
<path d="M1117 3963 c-4 -3 -7 -15 -7 -25 0 -13 8 -18 30 -18 25 0 30 4 30 25
0 20 -5 25 -23 25 -13 0 -27 -3 -30 -7z"/>
<path d="M3900 3875 c0 -20 5 -25 25 -25 20 0 25 5 25 25 0 20 -5 25 -25 25
-20 0 -25 -5 -25 -25z"/>
<path d="M1014 3855 c-8 -21 4 -35 32 -35 19 0 24 5 24 25 0 20 -5 25 -25 25
-14 0 -28 -7 -31 -15z"/>
<path d="M3992 3798 c-18 -18 -15 -36 7 -48 32 -17 51 -12 51 13 0 24 -17 47
-35 47 -6 0 -16 -5 -23 -12z"/>
<path d="M936 3765 c-24 -19 -14 -45 19 -45 21 0 25 5 25 30 0 33 -14 38 -44
15z"/>
<path d="M4082 3668 c2 -25 8 -34 26 -36 30 -4 39 23 17 48 -28 31 -47 25 -43
-12z"/>
<path d="M857 3653 c-4 -3 -7 -17 -7 -30 0 -16 6 -23 19 -23 24 0 45 25 37 45
-5 15 -37 21 -49 8z"/>
<path d="M4154 3565 c-10 -25 4 -45 31 -45 31 0 43 24 22 45 -20 19 -46 19
-53 0z"/>
<path d="M782 3538 c-15 -15 -16 -44 -2 -53 6 -3 19 -3 31 0 15 5 19 14 17 33
-3 29 -26 40 -46 20z"/>
<path d="M4220 3432 c0 -11 7 -25 15 -32 21 -18 47 -5 43 22 -4 31 -58 40 -58
10z"/>
<path d="M710 3415 c-16 -19 -9 -49 14 -53 26 -5 40 12 32 42 -7 29 -27 34
-46 11z"/>
<path d="M4283 3314 c-8 -22 9 -49 33 -49 30 0 27 59 -4 63 -14 2 -25 -3 -29
-14z"/>
<path d="M652 3288 c-16 -16 -15 -43 3 -58 21 -18 47 5 43 39 -3 29 -27 38
-46 19z"/>
<path d="M4334 3186 c-8 -21 15 -58 34 -54 11 2 17 13 17 33 0 24 -5 31 -23
33 -13 2 -24 -3 -28 -12z"/>
<path d="M598 3145 c-9 -21 -9 -29 3 -41 19 -19 45 -9 53 19 4 14 0 26 -11 35
-24 17 -32 15 -45 -13z"/>
<path d="M4376 3054 c-9 -25 12 -56 37 -52 28 4 35 38 11 55 -24 17 -41 16
-48 -3z"/>
<path d="M1014 3037 c-2 -7 -3 -71 -2 -143 l3 -129 85 -5 85 -5 5 -395 5 -395
140 0 140 0 5 395 5 395 88 3 87 3 0 144 0 145 -320 0 c-254 0 -322 -3 -326
-13z"/>
<path d="M1873 3038 c-15 -21 -205 -1060 -195 -1070 5 -5 67 -7 138 -6 l129 3
15 110 c8 61 19 116 23 123 9 14 83 17 92 3 3 -5 12 -58 20 -116 9 -59 18
-111 21 -116 9 -15 261 -11 266 4 3 8 -168 923 -201 1075 -1 1 -68 2 -150 2
-107 0 -151 -3 -158 -12z m171 -575 c4 -32 9 -70 12 -85 5 -26 3 -28 -25 -28
-21 0 -31 5 -31 15 0 39 23 164 30 160 4 -3 11 -31 14 -62z"/>
<path d="M2515 3038 c-3 -7 -4 -251 -3 -543 l3 -530 145 0 145 0 5 245 5 245
71 6 c86 8 139 34 192 94 76 87 92 208 41 325 -29 67 -104 135 -172 155 -67
20 -425 22 -432 3z m341 -295 c8 -29 -1 -92 -15 -106 -19 -19 -31 6 -31 67 0
34 3 65 6 69 11 11 34 -5 40 -30z"/>
<path d="M3275 3038 c-3 -7 -4 -251 -3 -543 l3 -530 145 0 145 0 5 245 5 245
71 6 c86 8 139 34 192 94 76 87 92 208 41 325 -29 67 -104 135 -172 155 -67
20 -425 22 -432 3z m341 -295 c8 -29 -1 -92 -15 -106 -19 -19 -31 6 -31 67 0
34 3 65 6 69 11 11 34 -5 40 -30z"/>
<path d="M566 3017 c-24 -17 -17 -51 11 -55 14 -2 26 4 33 18 22 41 -6 65 -44
37z"/>
<path d="M4414 2905 c-8 -31 6 -48 32 -43 29 5 26 62 -3 66 -17 3 -24 -3 -29
-23z"/>
<path d="M528 2874 c-11 -23 -10 -28 7 -40 11 -8 24 -13 30 -11 16 5 18 59 3
68 -21 14 -28 11 -40 -17z"/>
<path d="M4437 2783 c-20 -19 10 -67 36 -57 21 8 22 50 1 58 -20 8 -29 8 -37
-1z"/>
<path d="M507 2754 c-11 -11 -8 -52 3 -59 6 -3 19 -3 31 0 28 9 23 59 -6 63
-12 2 -24 0 -28 -4z"/>
<path d="M4463 2653 c-7 -2 -13 -18 -13 -34 0 -24 4 -29 25 -29 30 0 41 20 25
49 -11 21 -16 23 -37 14z"/>
<path d="M501 2606 c-20 -24 -9 -51 19 -51 21 0 25 5 25 30 0 34 -24 45 -44
21z"/>
<path d="M4454 2516 c-11 -29 0 -51 26 -51 21 0 25 5 25 30 0 24 -5 31 -23 33
-13 2 -24 -3 -28 -12z"/>
<path d="M494 2466 c-11 -29 0 -51 26 -51 21 0 25 5 25 30 0 24 -5 31 -23 33
-13 2 -24 -3 -28 -12z"/>
<path d="M4455 2379 c-11 -16 4 -59 20 -59 20 0 28 17 21 46 -7 25 -30 32 -41
13z"/>
<path d="M507 2334 c-15 -16 -7 -53 14 -59 27 -9 42 6 37 36 -3 24 -36 38 -51
23z"/>
<path d="M4442 2241 c-8 -4 -12 -19 -10 -32 2 -18 9 -24 28 -24 21 0 25 5 25
30 0 31 -19 42 -43 26z"/>
<path d="M527 2194 c-15 -16 -7 -53 14 -59 27 -9 42 6 37 36 -3 24 -36 38 -51
23z"/>
<path d="M4416 2095 c-21 -22 -20 -32 5 -46 25 -13 37 -3 41 31 4 30 -22 38
-46 15z"/>
<path d="M544 2046 c-3 -8 0 -24 6 -36 14 -26 53 -23 58 4 7 34 -52 63 -64 32z"/>
<path d="M4374 1966 c-11 -29 0 -51 26 -51 21 0 25 5 25 30 0 24 -5 31 -23 33
-13 2 -24 -3 -28 -12z"/>
<path d="M597 1923 c-4 -3 -7 -19 -7 -35 0 -23 4 -28 25 -28 30 0 41 20 25 49
-11 21 -30 27 -43 14z"/>
<path d="M4336 1834 c-19 -19 -20 -36 -4 -52 19 -19 37 -14 50 13 8 19 8 28
-2 40 -16 19 -25 19 -44 -1z"/>
<path d="M634 1776 c-8 -21 15 -58 33 -54 26 5 39 34 24 52 -17 20 -50 21 -57
2z"/>
<path d="M4280 1705 c-18 -22 -8 -50 19 -50 32 0 49 28 32 49 -17 20 -35 20
-51 1z"/>
<path d="M692 1658 c-16 -16 -15 -26 3 -44 32 -32 73 7 45 41 -15 18 -32 19
-48 3z"/>
<path d="M4220 1575 c-17 -21 -8 -50 17 -53 17 -3 24 3 29 22 10 42 -19 63
-46 31z"/>
<path d="M754 1525 c-8 -20 13 -45 38 -45 24 0 34 26 18 45 -16 19 -49 19 -56
0z"/>
<path d="M4146 1455 c-27 -20 -13 -45 24 -45 28 0 31 3 28 27 -3 32 -25 39
-52 18z"/>
<path d="M837 1413 c-14 -13 -6 -42 13 -48 25 -8 40 1 40 25 0 23 -37 40 -53
23z"/>
<path d="M4073 1343 c-15 -6 -17 -39 -3 -48 20 -12 51 6 48 28 -3 22 -22 30
-45 20z"/>
<path d="M912 1279 c5 -33 34 -47 54 -27 24 24 11 48 -26 48 -26 0 -31 -3 -28
-21z"/>
<path d="M3987 1233 c-12 -12 -7 -53 6 -53 24 0 51 26 44 44 -6 16 -38 22 -50
9z"/>
<path d="M1010 1180 c0 -25 4 -30 25 -30 33 0 43 26 19 45 -30 23 -44 18 -44
-15z"/>
<path d="M3880 1105 c0 -20 5 -25 25 -25 20 0 25 5 25 25 0 20 -5 25 -25 25
-20 0 -25 -5 -25 -25z"/>
<path d="M1106 1091 c-22 -24 -13 -41 20 -41 20 0 24 5 24 30 0 35 -18 39 -44
11z"/>
<path d="M3787 1044 c-4 -4 -7 -18 -7 -31 0 -18 5 -23 26 -23 22 0 25 4 22 27
-3 27 -26 41 -41 27z"/>
<path d="M1212 973 c2 -20 9 -28 23 -28 14 0 21 8 23 28 3 23 0 27 -23 27 -23
0 -26 -4 -23 -27z"/>
<path d="M3673 940 c-20 -31 -16 -40 18 -40 27 0 30 3 27 27 -4 34 -28 41 -45
13z"/>
<path d="M1327 923 c-4 -3 -7 -17 -7 -30 0 -19 5 -23 30 -23 22 0 30 5 30 18
0 31 -35 54 -53 35z"/>
<path d="M3557 863 c-4 -3 -7 -15 -7 -25 0 -24 58 -26 67 -2 9 24 -41 47 -60
27z"/>
<path d="M1433 834 c-8 -22 10 -49 33 -49 22 0 31 30 14 50 -16 20 -39 19 -47
-1z"/>
<path d="M3434 786 c-9 -23 3 -46 23 -46 28 0 45 16 41 36 -4 25 -56 32 -64
10z"/>
<path d="M1554 756 c-9 -22 4 -36 32 -36 21 0 25 4 22 23 -4 26 -45 37 -54 13z"/>
<path d="M3316 727 c-21 -16 -16 -44 9 -53 21 -9 47 15 43 40 -4 26 -27 31
-52 13z"/>
<path d="M1680 705 c-19 -23 -4 -45 30 -45 38 0 52 27 25 46 -24 18 -40 18
-55 -1z"/>
<path d="M3187 672 c-24 -26 -12 -54 22 -50 22 2 26 8 26 33 0 36 -24 44 -48
17z"/>
<path d="M1810 649 c-11 -19 -10 -25 6 -36 23 -17 39 -17 53 1 12 14 5 46 -9
46 -5 0 -15 3 -23 6 -10 3 -20 -3 -27 -17z"/>
<path d="M3063 633 c-14 -5 -18 -49 -5 -57 5 -3 19 -2 31 1 17 4 21 12 19 32
-3 25 -20 35 -45 24z"/>
<path d="M1942 593 c3 -24 8 -28 33 -28 25 0 30 4 30 25 0 21 -5 26 -33 28
-31 3 -33 2 -30 -25z"/>
<path d="M2917 594 c-16 -17 -6 -44 19 -50 30 -8 47 6 42 32 -3 19 -47 32 -61
18z"/>
<path d="M2075 570 c-8 -25 1 -40 24 -40 28 0 53 23 45 43 -9 25 -61 23 -69
-3z"/>
<path d="M2217 563 c-11 -10 -8 -41 4 -48 19 -12 59 4 59 24 0 25 -45 42 -63
24z"/>
<path d="M2777 563 c-12 -12 -7 -43 7 -49 19 -7 56 13 56 30 0 21 -48 35 -63
19z"/>
<path d="M2637 554 c-16 -17 -6 -44 19 -50 30 -8 47 6 42 32 -3 19 -47 32 -61
18z"/>
<path d="M2362 541 c-25 -16 -10 -46 23 -46 25 0 30 4 30 25 0 27 -28 38 -53
21z"/>
<path d="M2494 536 c-11 -28 4 -48 33 -44 22 2 28 8 28 28 0 20 -6 26 -28 28
-18 2 -29 -2 -33 -12z"/>
</g>
</svg>
